<svg  xmlns="http://www.w3.org/2000/svg" xmlns:xlink="http://www.w3.org/1999/xlink" x="0" y="0" width="600" height="600">
<rect x="0%" y="0%" height="100%" width="100%" style="fill: #ffffff"/>
<svg x="0" y="0">
  <text fill="dark" font-size="35" transform="translate(250, 30)">cores</text>
</svg>
<svg x="0" y="0"> 
  <text fill="dark" font-size="35" transform="translate(30, 300) rotate(270)">time</text>
</svg>
<svg x = "50" y="550">
  <text fill="blue" font-size="30" transform="translate(0, 35)">t = 0s, lb = 0.701894</text>
</svg>
<svg x="50" y="50" width="500" height="500" >
  <rect x="0%" y="0%" height="100%" width="100%" style="fill: #eeeeee"/>
    <rect x="0"  y="0" height="119.126" width="225.806" style="fill: #84cb3e"/>
    <rect x="225.806"  y="0" height="119.126" width="241.935" style="fill: #c7db92"/>
    <rect x="0"  y="119.126" height="196.175" width="112.903" style="fill: #5643fd"/>
    <rect x="112.903"  y="119.126" height="156.284" width="112.903" style="fill: #34fdd4"/>
    <rect x="225.806"  y="119.672" height="100.546" width="112.903" style="fill: #67e2cc"/>
    <rect x="338.71"  y="119.672" height="149.18" width="64.5161" style="fill: #a40603"/>
    <rect x="403.226"  y="119.672" height="380.328" width="64.5161" style="fill: #5cb274"/>
    <rect x="225.806"  y="220.219" height="151.913" width="112.903" style="fill: #4cb90a"/>
    <rect x="338.71"  y="268.852" height="180.328" width="64.5161" style="fill: #63e51c"/>
</svg>
</svg>
